<svg version="1.1" xmlns="http://www.w3.org/2000/svg" xmlns:xlink="http://www.w3.org/1999/xlink" width="320" height="320"><defs/><g transform="scale(2,2)"><g id="background-d6d58787"><rect fill="white" stroke="none" x="0" y="0" width="160" height="160" class="dcg-svg-background"/></g><g id="graphpaper-d6d58787"><g id="axis-d6d58787"><g><g><path fill="none" stroke="rgb(0,0,0)" class="dcg-svg-tickmark" paint-order="fill stroke markers" d="" stroke-opacity="0.9" stroke-miterlimit="2" stroke-width="2" stroke-dasharray=""/></g></g></g></g><g id="expressions-d6d58787"><g id="sketch-d6d58787"><title>Expression 1</title><path fill="#c74440" stroke="none" paint-order="stroke fill markers" d="" fill-opacity="0.4"/><g><path fill="none" stroke="#c74440" class="dcg-svg-curve" paint-order="fill stroke markers" d=" M 80 80 L 80 80 L 70.19580266989256 65.3721460660225 L 64.17965834509818 56.603789838574684 L 59.47771740671914 49.95832326874416 L 54.907049042488005 43.74493797278341 L 51.58281996667799 39.42248172483243 L 48.36086205211612 35.428481577222 L 45.252770867997825 31.795267099847187 L 42.26973218625023 28.5522474707372 L 40.355834631526704 26.620109194214344 L 38.50535928442184 24.88008088122784 L 36.72126651074399 23.338424754699346 L 35.00641047834486 22.000689111895547 L 33.36353459105991 20.871688356549384 L 31.795267099847173 19.955485672205597 L 30.304116898146845 19.255378399147673 L 28.89246950818643 18.773886167533483 L 27.562583264654613 18.512741829447634 L 26.928970631179183 18.465124908925155 L 26.31658570184699 18.472885222505184 L 25.72567342246478 18.536015786429303 L 25.156470150065537 18.654459787451152 L 24.609203558368932 18.828110633964563 L 24.08409254671487 19.056812051928745 L 23.581347152506652 19.340358225504403 L 23.10116846719876 19.678493982274126 L 22.209270380365083 20.517268194874006 L 21.40982513289135 21.570116008330437 L 20.70411166663429 22.833248307454205 L 20.09325897259574 24.302119179987642 L 19.578244284777874 25.971442276979822 L 19.159891516817254 27.835209837934165 L 18.838869943898786 29.88671431225871 L 18.61569313205819 32.11857249920485 L 18.49071811658591 34.522752119417184 L 18.46414483084677 37.090600722465375 L 18.536015786429303 39.81287682632217 L 18.706216005136206 42.6797831767191 L 18.97447320292502 45.68100200668206 L 19.340358225504403 48.805732169350534 L 19.80328573488955 52.04272801044269 L 20.36251514581808 55.38033984046646 L 21.017151810528354 58.80655586102216 L 21.766148450005275 62.30904539430493 L 22.60830682940304 65.8752032602299 L 23.542279674965563 69.49219514146796 L 24.566572829376767 73.14700377312926 L 25.679547642093922 76.8264757908594 L 26.879423590838528 80.51736906874764 L 28.164281130052593 84.20640037667987 L 29.532064761761582 87.88029318562339 L 30.980586323933153 91.52582544879404 L 32.50752849106917 95.12987718674692 L 34.110448481432634 98.6794777051341 L 35.786781964976846 102.16185227519809 L 37.53384716572699 105.56446810899975 L 39.34884915204918 108.87507946392167 L 41.228884307945094 112.08177171411731 L 43.17094497821806 115.17300423029806 L 45.17192428007982 118.13765191353619 L 47.228621073500236 120.96504523360733 L 49.33774508234839 123.6450086277776 L 51.4959221581326 126.16789712184116 L 53.69969967791816 128.52463104161203 L 55.94555206778755 130.7067286899462 L 58.2298864430066 132.70633687169237 L 60.54904835587363 134.51625915671397 L 62.899327642056164 136.12998177926647 L 65.27696435606265 137.54169708051995 L 67.67815478635255 138.74632440985948 L 70.09905754046429 139.7395284097408 L 72.53579969042275 140.51773461829603 L 73.75889314974756 140.8253078116388 L 74.98448296859884 141.0781423335362 L 76.21207892738995 141.27601064998433 L 77.44119000410517 141.41873469285412 L 78.67132457070178 141.50618602014055 L 79.90199058975467 141.53828593155185 L 81.13269581126484 141.51500553933448 L 82.3629479695529 141.43636579427 L 83.59225498015877 141.30243746682095 L 84.82012513666865 141.11334108344218 L 86.0460673073913 140.86924681811507 L 87.26959113180413 140.57037433920254 L 88.4902072166909 140.21699261176235 L 90.92076460559142 139.34802225855572 L 93.33385110076185 138.2654631133913 L 95.72560627857425 136.97321122016814 L 98.09220384095798 135.47591729023725 L 100.42985773666052 133.77896996486294 L 102.73482821812163 131.88847642193338 L 105.00342782427177 129.81124039671505 L 107.2320272796832 127.55473769575309 L 109.41706130063645 125.12708929204044 L 111.55503429881374 122.53703209828474 L 113.64252597349457 119.79388752345744 L 115.67619678330723 116.9075279257873 L 117.65279328878269 113.88834108293159 L 119.5691533571636 110.747192807194 L 121.42221122114225 107.49538784033416 L 123.20900238343417 104.14462916870485 L 124.9266683593415 100.70697590513876 L 126.57246124971866 97.19479988916467 L 128.14374813702477 93.62074116174514 L 129.63801529743017 89.99766247477872 L 131.0528722222382 86.33860299908295 L 132.3860554421892 82.65673139746022 L 133.63543214852848 78.96529843173226 L 134.79900360504544 75.27758927430654 L 135.87490834562493 71.60687569590169 L 136.86142515219618 67.96636830150497 L 137.75697580831434 64.36916898646007 L 138.5601276239702 60.82822378379208 L 139.26959572758872 57.356276272468634 L 139.88424512154916 53.96582171427707 L 140.4030924979394 50.66906208437537 L 140.8253078116388 47.47786215735806 L 141.1502156082132 44.403706806879995 L 141.37729610449804 41.45765967251345 L 141.50618602014055 38.65032334259306 L 141.53667915877074 35.99180119634721 L 141.46872673787163 33.49166104264285 L 141.30243746682095 31.158900686205996 L 141.03807737297922 29.001915545240905 L 140.6760693761028 27.02846843699067 L 140.21699261176235 25.245661639977875 L 139.66158150484975 23.659911333471435 L 139.01072459465468 22.27692450616992 L 138.26546311339132 21.101678417205093 L 137.42698932044908 20.138402683383774 L 136.4966445950318 19.390564057134725 L 135.99748006533602 19.09830529629304 L 135.47591729023722 18.860853949943646 L 134.93216488789136 18.678423708270742 L 134.36644035200945 18.55117874617816 L 133.77896996486288 18.47923357554302 L 133.1699887067738 18.46265294216274 L 132.53974016212575 18.50145176748819 L 131.21645798300926 18.74499832260802 L 129.81124039671505 19.208996736302772 L 128.32633545161724 19.89177711534132 L 126.76411867886529 20.790882187673432 L 125.12708929204035 21.903076145955758 L 123.4178661889472 23.224356292963684 L 121.63918376193578 24.74996744697947 L 119.79388752345744 26.474419055310833 L 117.88492955385144 28.391504954352172 L 115.91536377864661 30.4943257050711 L 112.85429331640893 33.98007880892986 L 109.67498287661122 37.83834172844296 L 106.3888745435936 42.037883623320326 L 103.00779475878386 46.54471115900995 L 98.37303030729807 52.96843976696356 L 93.62074116174526 59.780955961065104 L 87.56147662194155 68.69364439467182 L 75.27758927430659 87.07490819550009 L 67.96636830150497 97.90475634255327 L 63.181969539876114 104.82419151807812 L 58.5051487798932 111.38658709192335 L 55.08615873128632 116.01706610110992 L 51.756831607526664 120.35600374502482 L 48.52914939101832 124.36827834548959 L 45.41472825226202 128.02141240942956 L 42.424776744185955 131.2858355190455 L 40.50595902308101 133.23298206452463 L 38.650323342593154 134.98854735929365 L 36.86083832396324 136.54621326407425 L 35.14036676148457 137.90037386368658 L 33.491661042642825 139.04615564229005 L 31.91735874488309 139.97943502277747 L 30.41997841604846 140.69685320719987 L 29.001915545240912 141.195828264812 L 27.66543873054986 141.47456442423487 L 27.02846843699067 141.53099835291408 L 26.41268604977902 141.5320585362935 L 25.818337873659452 141.47774402027957 L 25.245661639977904 141.3681036842706 L 24.6948864115922 141.20323619716856 L 24.16623249125022 140.98328992858356 L 23.659911333471435 140.7084628153114 L 23.176125459968056 140.3790021832038 L 22.715068378639174 139.99520452459166 L 21.861869094267462 139.06602828462943 L 21.1016784172051 137.92427812649856 L 20.43571249037008 136.57406311782623 L 19.865036717180125 135.0202425745863 L 19.390564057134725 133.26840857280973 L 19.013053565274475 131.32486582314905 L 18.7331091778551 129.19660898072897 L 18.55117874617816 126.89129747194043 L 18.46755332012461 124.41722792877754 L 18.482366682536977 121.78330432992102 L 18.59559513519543 118.99900595603079 L 18.80705753672983 116.07435327457117 L 19.11641559240728 113.01987187694985 L 19.523174395331587 109.84655459775385 L 20.026683218188616 106.56582195241722 L 20.62613655427134 103.18948103569682 L 21.320575406118515 99.72968302888235 L 22.108888819706266 96.19887946866479 L 22.989815661737474 92.60977743505049 L 23.961946637185825 88.97529381959565 L 25.023726543867575 85.30850883854424 L 26.173456760432913 81.62261895817589 L 27.409297963798124 77.9308894017761 L 28.729273071669787 74.24660640915882 L 30.131270405455084 70.58302942054897 L 31.613047068496662 66.95334335691739 L 33.17223253422927 63.37061116850236 L 34.8063324385161 59.84772682229592 L 36.512732570099814 56.39736889768554 L 38.28870305278235 53.031954957260815 L 40.13140271264508 49.763596856995946 L 42.03788362332032 46.60405715664907 L 44.00509582204543 43.56470678724773 L 46.02989218895182 40.656484128017425 L 48.10903348178614 37.889855640027626 L 50.23919351800615 35.27477819823502 L 52.416964495964 32.82066325748508 L 54.63886244666113 30.536342981438715 L 56.90133280735624 28.430038456319537 L 59.2007561081066 26.509330103882306 L 61.53345376214872 24.78113040007949 L 63.89569395085152 23.251658997613184 L 66.28369759383102 21.92642034190125 L 68.69364439467181 20.810183861018317 L 71.12167895258735 19.906966800904748 L 72.34126624571927 19.53628665384555 L 73.56391693023782 19.220019767619675 L 74.78914196217099 18.95845076107735 L 76.0164512678422 18.751815028669064 L 77.2453539398928 18.600298528606558 L 78.4753584336394 18.504037615512765 L 79.70597276368439 18.46311891771208 L 80.93670470070349 18.47757925927059 L 82.16706196833152 18.54740562685693 L 83.39655244006612 18.672535181453426 L 84.62468433611133 18.852855314906925 L 85.85096642008375 19.08820375126856 L 87.07490819549996 19.37836869283114 L 88.29602010196884 19.72308901073282 L 90.72780192141413 20.574906058505974 L 93.14242154626083 21.640589273068095 L 95.53601610020048 22.916303345646405 L 97.90475634255317 24.39745708318558 L 100.24485279423551 26.07871993168464 L 102.55256180011867 27.954041160434876 L 104.82419151807812 30.016671638116662 L 107.05610782515375 32.25918812238401 L 109.24474013137106 34.673519975520826 L 111.38658709192333 37.25097821002136 L 113.4782222085766 39.982286759562044 L 115.51629931133597 42.85761586282396 L 117.49755791160374 45.86661744001836 L 119.41882841826532 48.99846233479885 L 121.27703720835919 52.24187928753083 L 123.06921154421798 55.585195499654546 L 124.79248432921455 59.016378643154695 L 126.44409869450475 62.52308016394784 L 128.02141240942962 66.092679723342 L 129.52190210852103 69.7123306176285 L 130.9431673283479 73.36900601234201 L 132.2829343477455 77.04954582479681 L 133.53905982528448 80.74070408617406 L 134.70953422815995 84.42919661270552 L 135.79248504701525 88.10174881438971 L 136.78617979155737 91.74514346918099 L 137.6890287621719 95.34626829071588 L 138.4995875931034 98.89216311838521 L 139.2165595631324 102.37006655991645 L 139.83879767005268 105.76746191860471 L 140.36530646563025 109.0721222399058 L 140.79524364810803 112.27215431526736 L 141.12792140970913 115.35604148483881 L 141.36280753698247 118.31268508500777 L 141.49952626223075 121.13144439160543 L 141.5378588646587 123.80217491502296 L 141.47774402027954 126.31526490941906 L 141.3192779000206 128.66166996462528 L 141.06271401586991 130.832945556256 L 140.7084628153114 132.82127743687812 L 140.25709102469642 134.61950975886182 L 139.70932074260244 136.221170827706 L 139.06602828462943 137.62049639314898 L 138.32824278148166 138.81245039424567 L 137.49714453257832 139.79274308374798 L 136.57406311782626 140.55784646656264 L 136.07848451725272 140.85881114273428 L 135.56047527057538 141.10500699672406 L 135.02024257458632 141.29621246888098 L 134.4580025151609 141.43225548718613 L 133.87397998082636 141.51301362210566 L 133.26840857280973 141.53841419676917 L 132.6415305115999 141.5084343523739 L 131.32486582314917 141.28249114011172 L 129.92609229810208 140.83599713689387 L 128.44744767570967 140.1705592389762 L 126.8912974719405 139.28857230420473 L 125.26013119515952 138.1932105331128 L 123.55655836344593 136.88841604522773 L 121.78330432992104 135.37888469169684 L 119.94320592276455 133.67004915529475 L 118.03920690689445 131.7680593986315 L 116.07435327457125 129.6797605309285 L 113.01987187694985 126.2145998013339 L 109.84655459775405 122.37535342345981 L 106.56582195241734 118.19309830755373 L 103.18948103569693 113.70168785974815 L 98.56001532718054 107.29539357475461 L 93.81182885857572 100.49651706034507 L 87.75597145989781 91.59524858087065 L 76.70131187734964 75.05493266198742 L 68.15866367032581 62.37675493163818 L 63.370611168502364 55.44513462948973 L 58.68893000566116 48.86668028421833 L 55.26552120023436 44.2217520537612 L 51.93112980845499 39.866432066906896 L 48.69775603862307 35.835974609265755 L 45.577036544685136 32.16300435566735 L 42.58020254684655 28.8772522886223 L 40.65648412801735 26.915141925333778 L 38.79570694174756 25.144079726346575 L 37.00084783459059 23.57043960305969 L 35.27477819823502 22.199884960589188 L 33.62025937589034 21.037348315626737 L 32.0399382447274 20.087013544705357 L 30.53634298143872 19.35230082676187 L 29.111879017695543 18.835854334186344 L 27.76882519197069 18.539532716656808 L 27.12850370113867 18.474283068143436 L 26.509330103882306 18.464402412007416 L 25.911552061384974 18.509899640172364 L 25.335408676893387 18.610733808203904 L 24.781130400079448 18.766814172156906 L 24.2489389348639 18.978000270238887 L 23.73904715073664 19.244102049216274 L 23.25165899761314 19.564880035449285 L 22.78696942425622 19.940045550402075 L 21.92642034190125 20.852140030638985 L 21.158776598629714 21.977102934741843 L 20.485266260675502 23.310885611070162 L 19.906966800904804 24.84868788230134 L 19.42480337508927 26.584975320886485 L 19.039547341854146 28.513499167011936 L 18.751815028669085 30.627318817387355 L 18.562066745855553 32.91882680392279 L 18.470606050188543 35.37977617239851 L 18.47757925927059 38.00131016259429 L 18.582975217454667 40.773994083062064 L 18.78662531369097 43.68784926582811 L 19.088203751268537 46.73238897881996 L 19.48722806902061 49.89665616677955 L 19.983059913159344 53.16926288482835 L 20.574906058505974 56.53843128277271 L 21.26181967748179 59.99203599264551 L 22.042701854830064 63.51764776693632 L 22.916303345646405 67.10257821046193 L 23.881226573903888 70.73392544488532 L 24.935927868276615 74.39862054154783 L 26.07871993168464 78.08347455549685 L 27.307774540608932 81.77522599144675 L 28.621125469859656 85.46058853084145 L 30.01667163811672 89.12629884825331 L 31.492180469211313 92.75916434503152 L 33.045291463772216 96.34611062841121 L 34.67351997552082 99.87422856521019 L 36.37426118617522 103.33082074076553 L 38.14479427260397 106.70344715591723 L 39.98228675956204 109.97996999756981 L 41.88379905104795 113.1485973217136 L 43.84628913302982 116.19792549168872 L 45.86661744001835 119.11698021896217 L 47.94155187770293 121.89525605871691 L 50.06777299361232 124.52275421810722 L 52.24187928753072 126.99001854111745 L 54.460392653172676 129.28816954051013 L 56.71976394241035 131.40893635439264 L 59.016378643154695 133.34468651238842 L 61.346562661803034 135.0884534042881 L 63.70658820100455 136.633961352323 L 66.09267972334199 137.9756481968284 L 68.50101999138532 139.1086853140122 L 70.92775617445751 140.02899499378566 L 72.14681050785534 140.40831175602213 L 73.369006012342 140.73326511511686 L 74.59385382601167 141.0035626349804 L 75.82086402606993 141.21896106608943 L 77.0495458247967 141.37926656439487 L 78.27940776585467 141.48433486576855 L 79.50995792086539 141.53407141583114 L 80.74070408617416 141.5284314550447 L 81.97115397972397 141.46742005899327 L 83.20081543796401 141.35109213381511 L 84.42919661270562 141.179552366791 L 85.65580616785732 140.95295513213267 L 86.88015347595163 140.6715043520565 L 88.1017488143897 140.33545331326718 L 89.32010356132412 139.94510443901675 L 91.74514346918099 139.00296688294094 L 94.15139365298414 137.84848236164447 L 96.5350046257455 136.48580577271048 L 98.8921631183852 134.9198412803447 L 101.21909818014888 133.15622466568112 L 103.51208721132363 131.20130304405524 L 105.7674619186047 129.0621120222428 L 107.98161418358137 126.7463503778732 L 110.15100183495719 124.26235235214344 L 112.27215431526736 121.6190576555511 L 114.34167823303238 118.82597929458726 L 116.3562627914587 115.89316933518884 L 118.31268508500759 112.83118272615516 L 120.20781525535739 109.65103931273039 L 122.03862149850858 106.36418417705914 L 123.80217491502295 102.98244644825321 L 125.4956541956389 99.5179967302974 L 127.11635013476379 95.98330330101962 L 128.661669964625 92.39108723975443 L 130.12914150314558 88.75427664519412 L 131.5164171089075 85.08596010819608 L 132.821277436878 81.3993396069859 L 134.04163498888786 77.70768299429601 L 135.17553745318264 74.02427624742157 L 136.22117082770592 70.36237565304917 L 137.17686232211497 66.73516009894044 L 138.04108303388875 63.15568364416745 L 138.81245039424573 59.63682853859646 L 139.48973037995881 56.19125886070026 L 140.0718394875296 52.83137494055091 L 140.55784646656267 49.56926873202076 L 140.94697380956745 46.416680294809524 L 141.23859899580458 43.384955542903796 L 141.43225548718613 40.485005411540605 L 141.5276334746371 37.72726658962252 L 141.52458037372375 35.121663958907604 L 141.42310106875627 32.677574875154 L 141.22335790497485 30.403795419763014 L 140.9256704288319 28.308508743387208 L 140.530514876786 26.39925561542355 L 140.03852341342508 24.68290728538664 L 139.45048312013793 23.16564075383083 L 138.7673347359519 21.852916541818495 L 137.99017115255106 20.749459038940785 L 137.12023566588294 19.859239500617043 L 136.65090763037477 19.49512547668308 L 136.15891998714983 19.18546175586357 L 135.6444695247056 18.930527014605566 L 135.1077620163678 18.73055067696864 L 134.54901213798388 18.58571270815873 L 133.96844338205528 18.496143452571424 L 133.36628796834347 18.46192351649104 L 132.74278675098535 18.483083695550256 L 132.09818912215462 18.559604947016197 L 130.74674428705794 18.87840545206761 L 129.31411548649658 19.41717769409034 L 127.8025946209405 20.173982674817253 L 126.21459980133392 21.14609671356905 L 124.55267148063402 22.330021249563416 L 122.81946838962797 23.721495432956026 L 121.01776328353142 25.315511459298015 L 119.15043850617072 27.106332592225762 L 117.22048137884826 29.087513809515045 L 115.23097942126535 31.251924998203187 L 112.14206705395272 34.8248848913137 L 108.93747795451293 38.763516288541545 L 105.62874518316283 43.03593780422335 L 102.22777660487708 47.60756617723993 L 97.57087147430079 54.10423226219464 L 92.80157272873724 60.97335013844148 L 86.72842434047429 69.93260160734957 L 65.94400705746462 100.85067502638134 L 61.201137404541626 107.63188260149927 L 56.57851631913279 114.0156683169556 L 53.20828551551428 118.48721358548272 L 49.934475952460446 122.64722279599981 L 46.76886980910802 126.46202261261217 L 43.7228598491285 129.90073400859282 L 41.76406128532866 131.97039244619359 L 39.866432066907066 133.85301359227674 L 38.03300799580705 135.5418220437038 L 36.266722159433094 137.03073991374336 L 34.570400238335665 138.31440870590188 L 32.94675598572582 139.38820859872348 L 31.398386886048776 140.24827507215875 L 29.927769999562756 140.89151281566373 L 28.537257999571523 141.31560686797502 L 27.229075408648193 141.51903094847108 L 26.606516883589713 141.53773185179958 L 26.00531503987407 141.5010529501337 L 25.425710350223056 141.40902725200925 L 24.867934648784455 141.26173757434302 L 24.332211038401937 141.0593164679031 L 23.818753801376772 140.80194609802226" stroke-linecap="round" stroke-linejoin="round" stroke-miterlimit="10" stroke-width="5" stroke-dasharray=""/></g></g></g><g id="labels-d6d58787"/><g id="labels-d6d58787"/></g></svg>