<svg version="1.1" xmlns="http://www.w3.org/2000/svg" xmlns:xlink="http://www.w3.org/1999/xlink" width="800" height="800"><defs/><g transform="scale(2,2)"><g id="background-f2903449"><rect fill="white" stroke="none" x="0" y="0" width="400" height="400" class="dcg-svg-background"/></g><g id="graphpaper-f2903449"><g id="axis-f2903449"><g><g><path fill="none" stroke="rgb(0,0,0)" class="dcg-svg-tickmark" paint-order="fill stroke markers" d="" stroke-opacity="0.9" stroke-miterlimit="2" stroke-width="2" stroke-dasharray=""/></g></g></g></g><g id="expressions-f2903449"><g id="sketch-f2903449"><title>Expression 1</title><path fill="#c74440" stroke="none" paint-order="stroke fill markers" d="" fill-opacity="0.4"/><g><path fill="none" stroke="#c74440" class="dcg-svg-curve" paint-order="fill stroke markers" d=" M 200 200 L 200 200 L 175.4895066747314 163.43036516505623 L 160.4491458627454 141.5094745964367 L 148.6942935167978 124.8958081718604 L 137.26762260622002 109.36234493195852 L 128.95704991669496 98.55620431208106 L 120.9021551302903 88.571203943055 L 113.13192716999457 79.48816774961796 L 105.67433046562557 71.380618676843 L 100.88958657881675 66.55027298553586 L 96.2633982110546 62.20020220306961 L 91.80316627685997 58.34606188674837 L 87.51602619586215 55.001722779738856 L 83.40883647764977 52.17922089137346 L 79.48816774961793 49.888714180514 L 75.7602922453671 48.138445997869184 L 72.23117377046607 46.93471541883372 L 68.90645816163652 46.281854573619086 L 67.32242657794797 46.16281227231289 L 65.79146425461747 46.18221305626295 L 64.31418355616194 46.34003946607325 L 62.89117537516384 46.63614946862788 L 61.52300889592232 47.0702765849114 L 60.210231366787184 47.64203012982185 L 58.953367881266615 48.350895563761014 L 57.7529211679969 49.19623495568533 L 55.5231759509127 51.293170487184994 L 53.524562832228355 53.92529002082608 L 51.76027916658572 57.083120768635524 L 50.23314743148936 60.755297949969105 L 48.94561071194468 64.92860569244957 L 47.899728792043135 69.58802459483542 L 47.09717485974696 74.71678578064677 L 46.539232830145465 80.29643124801213 L 46.226795291464754 86.30688029854296 L 46.16036207711693 92.72650180616343 L 46.34003946607325 99.53219206580542 L 46.76554001284052 106.69945794179775 L 47.436183007312536 114.20250501670513 L 48.350895563761014 122.01433042337634 L 49.508214337223876 130.1068200261067 L 50.90628786454519 138.45084960116617 L 52.54287952632086 147.0163896525554 L 54.415371125013195 155.77261348576235 L 56.520767073507585 164.68800815057475 L 58.855699187413904 173.73048785366987 L 61.41643207344191 182.86750943282314 L 64.19886910523479 192.06618947714853 L 67.1985589770963 201.29342267186908 L 70.41070282513147 210.51600094169964 L 73.83016190440395 219.7007329640585 L 77.45146580983288 228.8145636219851 L 81.26882122767292 237.8246929668673 L 85.27612120358157 246.6986942628353 L 89.4669549124421 255.40463068799522 L 93.83461791431746 263.91117027249936 L 98.37212288012296 272.18769865980414 L 103.07221076986272 280.2044292852933 L 107.92736244554516 287.9325105757452 L 112.92981070019955 295.3441297838405 L 118.07155268375058 302.41261308401835 L 123.34436270587098 309.112521569444 L 128.7398053953315 315.41974280460295 L 134.24924919479542 321.3115776040301 L 139.86388016946887 326.7668217248655 L 145.5747161075165 331.76584217923096 L 151.37262088968407 336.29064789178494 L 157.2483191051404 340.3249544481662 L 163.1924108901566 343.8542427012999 L 169.19538696588137 346.8658110246487 L 175.2476438511607 349.34882102435205 L 181.3394992260569 351.2943365457401 L 184.39723287436894 352.063269529097 L 187.4612074214971 352.6953558338405 L 190.53019731847488 353.1900266249608 L 193.60297501026292 353.54683673213526 L 196.67831142675445 353.7654650503514 L 199.7549764743867 353.8457148288797 L 202.8317395281621 353.7875138483362 L 205.90736992388227 353.590914485675 L 208.98063745039693 353.25609366705237 L 212.05031284167163 352.78335270860543 L 215.11516826847824 352.17311704528765 L 218.17397782951033 351.42593584800636 L 221.22551804172724 350.5424815294059 L 227.30191151397852 348.3700556463893 L 233.3346277519046 345.66365778347824 L 239.31401569643563 342.4330280504203 L 245.23050960239493 338.6897932255931 L 251.07464434165132 334.4474249121573 L 256.8370705453041 329.7211910548334 L 262.5085695606794 324.5281009917876 L 268.080068199208 318.8868442393827 L 273.5426532515911 312.8177232301011 L 278.88758574703434 306.3425802457119 L 284.1063149337364 299.4847188086436 L 289.1904919582681 292.26881981446826 L 294.1319832219567 284.72085270732896 L 298.92288339290906 276.867982017985 L 303.5555280528556 268.7384696008354 L 308.02250595858544 260.3615729217621 L 312.3166708983538 251.76743976284692 L 316.43115312429666 242.98699972291166 L 320.35937034256193 234.05185290436287 L 324.09503824357546 224.99415618694678 L 327.6321805555955 215.84650749770736 L 330.965138605473 206.64182849365056 L 334.0885803713212 197.4132460793307 L 336.9975090126136 188.1939731857663 L 339.6872708640624 179.0171892397542 L 342.1535628804904 169.91592075376244 L 344.39243952078584 160.92292246615017 L 346.40031905992555 152.0705594594802 L 348.1739893189718 143.39069068117158 L 349.7106128038729 134.91455428569267 L 351.0077312448485 126.67265521093842 L 352.063269529097 118.69465539339515 L 352.875539020533 111.00926701719999 L 353.44324026124514 103.64414918128361 L 353.7654650503514 96.62580835648265 L 353.8416978969268 89.97950299086803 L 353.6718168446791 83.72915260660712 L 353.25609366705237 77.89725171551498 L 352.5951934324481 72.50478886310226 L 351.690173440257 67.57117109247667 L 350.5424815294059 63.11415409994467 L 349.1539537621244 59.14977833367857 L 347.5268114866367 55.69231126542479 L 345.66365778347836 52.75419604301274 L 343.56747330112273 50.34600670845944 L 341.24161148757946 48.47641014283681 L 339.99370016334007 47.7457632407326 L 338.68979322559306 47.152134874859115 L 337.33041221972843 46.69605927067684 L 335.91610088002363 46.37794686544538 L 334.4474249121572 46.198083938857565 L 332.9249717669345 46.15663235540683 L 331.34935040531434 46.253629418720465 L 328.0411449575232 46.86249580652003 L 324.5281009917876 48.02249184075691 L 320.81583862904307 49.72944278835331 L 316.91029669716323 51.97720546918356 L 312.8177232301009 54.757690364889385 L 308.544665472368 58.060890732409206 L 304.09795940483946 61.874918617448685 L 299.4847188086436 66.18604763827707 L 294.7123238846286 70.97876238588043 L 289.7884094466165 76.23581426267775 L 282.1357332910223 84.95019702232466 L 274.1874571915281 94.5958543211074 L 265.972186358984 105.09470905830081 L 257.5194868969597 116.36177789752487 L 245.9325757682452 132.4210994174089 L 234.05185290436316 149.45238990266273 L 218.90369155485388 171.73411098667953 L 188.19397318576648 217.6872704887502 L 169.91592075376244 244.7618908563832 L 157.9549238496903 262.0604787951953 L 146.26287194973298 278.46646772980836 L 137.71539682821577 290.04266525277484 L 129.39207901881667 300.89000936256207 L 121.32287347754581 310.92069586372395 L 113.53682063065504 320.0535310235739 L 106.06194186046488 328.2145887976137 L 101.26489755770253 333.0824551613116 L 96.62580835648288 337.47136839823406 L 92.1520958099081 341.3655331601857 L 87.85091690371142 344.7509346592165 L 83.72915260660706 347.61538910572517 L 79.79339686220771 349.94858755694366 L 76.04994604012114 351.74213301799966 L 72.50478886310228 352.98957066203 L 69.16359682637466 353.6864110605872 L 67.57117109247667 353.82749588228523 L 66.03171512444754 353.83014634073373 L 64.54584468414862 353.69436005069895 L 63.114154099944756 353.4202592106766 L 61.7372160289805 353.0080904929214 L 60.415581228125546 352.4582248214589 L 59.14977833367857 351.7711570382785 L 57.94031364992014 350.9475054580095 L 56.78767094659793 349.98801131147917 L 54.65467273566867 347.66507071157355 L 52.75419604301274 344.81069531624644 L 51.08928122592519 341.4351577945656 L 49.66259179295031 337.5506064364657 L 48.47641014283681 333.1710214320243 L 47.532633913186174 328.3121645578726 L 46.832772944637725 322.99152245182245 L 46.37794686544538 317.22824367985106 L 46.168883300311506 311.04306982194385 L 46.205916706342435 304.45826082480255 L 46.48898783798856 297.49751489007696 L 47.017643841824565 290.1858831864279 L 47.791038981018204 282.5496796923746 L 48.80793598832895 274.61638649438464 L 50.06670804547153 266.4145548810431 L 51.56534138567835 257.97370258924207 L 53.30143851529627 249.32420757220586 L 55.27222204926565 240.49719867166195 L 57.47453915434366 231.52444358762625 L 59.90486659296457 222.4382345489891 L 62.55931635966894 213.2712720963606 L 65.43364190108227 204.05654739543974 L 68.5232449094953 194.82722350444024 L 71.82318267917447 185.61651602289703 L 75.3281760136377 176.4575735513724 L 79.03261767124165 167.38335839229347 L 82.93058133557318 158.42652792125588 L 87.01583109629024 149.6193170557398 L 91.28183142524954 140.99342224421386 L 95.72175763195588 132.57988739315203 L 100.32850678161267 124.40899214248986 L 105.0947090583008 116.51014289162268 L 110.01273955511357 108.91176696811932 L 115.07473047237954 101.64121032004356 L 120.27258370446535 94.72463910006907 L 125.59798379501537 88.18694549558754 L 131.04241123991 82.0516581437127 L 136.59715611665283 76.34085745359678 L 142.25333201839058 71.07509614079885 L 148.0018902702665 66.27332525970576 L 153.83363440537178 61.95282600019871 L 159.7392348771288 58.129147494032935 L 165.70924398457754 54.816050854753115 L 171.73411098667953 52.02545965254578 L 177.80419738146836 49.76741700226185 L 180.85316561429818 48.84071663461387 L 183.90979232559457 48.0500494190492 L 186.97285490542745 47.39612690269337 L 190.0411281696055 46.87953757167267 L 193.11338484973197 46.500746321516374 L 196.1883960840985 46.260094038781915 L 199.264931909211 46.157797294280186 L 202.34176175175872 46.193948148176474 L 205.41765492082882 46.368514067142314 L 208.49138110016528 46.68133795363357 L 211.56171084027835 47.13213828726731 L 214.62741605020935 47.720509378171386 L 217.6872704887499 48.445921732077835 L 220.7400502549221 49.30772252683204 L 226.81950480353532 51.437265146264934 L 232.8560538656521 54.10147318267022 L 238.84004025050123 57.290758364116016 L 244.76189085638293 60.99364270796394 L 250.61213198558877 65.19679982921159 L 256.38140450029664 69.88510290108718 L 262.0604787951953 75.04167909529166 L 267.6402695628843 80.64797030596002 L 273.11185032842764 86.68379993880207 L 278.46646772980836 93.12744552505339 L 283.69555552144146 99.95571689890511 L 288.79074827833995 107.14403965705989 L 293.74389477900934 114.6665436000459 L 298.5470710456633 122.49615583699712 L 303.19259302089796 130.60469821882708 L 307.67302886054495 138.96298874913634 L 311.98121082303635 147.54094660788675 L 316.11024673626184 156.3077004098696 L 320.05353102357407 165.231699308355 L 323.8047552713026 174.28082654407123 L 327.35791832086977 183.42251503085504 L 330.70733586936376 192.623864561992 L 333.8476495632112 201.85176021543518 L 336.77383557039985 211.07299153176382 L 339.4812126175382 220.25437203597426 L 341.96544947889345 229.36285867295248 L 344.22257190542973 238.36567072678972 L 346.24896898275847 247.23040779596303 L 348.04139890783097 255.92516639979112 L 349.5969941751317 264.41865479651176 L 350.9132661640756 272.6803055997645 L 351.9881091202701 280.68038578816845 L 352.81980352427286 288.390103712097 L 353.4070188424562 295.78171271251944 L 353.74881565557683 302.82861097901355 L 353.84464716164666 309.50543728755736 L 353.69436005069895 315.78816227354764 L 353.2981947500515 321.6541749115632 L 352.6567850396748 327.08236389064 L 351.7711570382785 332.0531935921953 L 350.6427275617411 336.54877439715455 L 349.2733018565061 340.552927069265 L 347.66507071157355 344.0512409828724 L 345.8206069537042 347.0311259856142 L 343.74286133144585 349.48185770936993 L 341.4351577945656 351.39461616640654 L 340.1962112931318 352.14702785683573 L 338.90118817643844 352.7625174918102 L 337.55060643646584 353.24053117220245 L 336.1450062879022 353.58063871796537 L 334.68494995206595 353.78253405526414 L 333.1710214320243 353.8460354919229 L 331.6038262789998 353.7710858809348 L 328.31216455787296 353.20622785027933 L 324.81523074525523 352.08999284223466 L 321.1186191892742 350.42639809744054 L 317.2282436798513 348.2214307605118 L 313.15032798789883 345.48302633278195 L 308.8913959086148 342.2210401130693 L 304.45826082480255 338.4472117292421 L 299.85801480691134 334.17512288823684 L 295.0980172672361 329.4201484965787 L 290.1858831864281 324.1994013273212 L 282.54967969237464 315.53649950333477 L 274.6163864943851 305.93838355864955 L 266.41455488104333 295.48274576888434 L 257.9737025892423 284.2542196493704 L 246.40003831795133 268.23848393688655 L 234.5295721464393 251.2412926508627 L 219.38992864974452 228.98812145217659 L 191.75327969337408 187.63733165496853 L 170.39665917581453 155.94188732909544 L 158.4265279212559 138.6128365737243 L 146.7223250141529 122.16670071054583 L 138.1638030005859 110.554380134403 L 129.82782452113747 99.66608016726722 L 121.74439009655768 89.58993652316438 L 113.94259136171283 80.40751088916836 L 106.45050636711638 72.19313072155575 L 101.64121032004337 67.28785481333443 L 96.98926735436889 62.860199315866424 L 92.50211958647647 58.92609900764921 L 88.18694549558754 55.49971240147295 L 84.05064843972585 52.59337078906685 L 80.09984561181851 50.21753386176337 L 76.3408574535968 48.38075206690468 L 72.77969754423886 47.089635835465856 L 69.42206297992672 46.348831791642 L 67.82125925284666 46.18570767035857 L 66.27332525970576 46.16100603001854 L 64.77888015346241 46.27474910043091 L 63.338521692233456 46.526834520509766 L 61.95282600019863 46.91703543039225 L 60.62234733715974 47.445000675597214 L 59.34761787684158 48.11025512304067 L 58.12914749403285 48.912200088623194 L 56.967423560640555 49.850113876005196 L 54.816050854753115 52.130350076597466 L 52.89694149657427 54.94275733685461 L 51.21316565168874 58.2772140276754 L 49.76741700226199 62.12171970575335 L 48.562008437723165 66.46243830221621 L 47.59886835463536 71.28374791752984 L 46.8795375716727 76.56829704346839 L 46.40516686463886 82.29706700980697 L 46.176515125471354 88.44944043099628 L 46.193948148176474 95.00327540648571 L 46.45743804363667 101.93498520765515 L 46.96656328422742 109.21962316457028 L 47.72050937817133 116.8309724470499 L 48.718070172551506 124.74164041694887 L 49.95764978289836 132.92315721207086 L 51.437265146264934 141.3460782069318 L 53.15454919370447 149.9800899816138 L 55.10675463707514 158.7941194173408 L 57.290758364116016 167.7564455261548 L 59.703066434759734 176.83481361221328 L 62.339819670691526 185.99655135386956 L 65.19679982921159 195.2086863887421 L 68.26943635152233 204.43806497861686 L 71.55281367464914 213.65147132710362 L 75.0416790952918 222.81574712063326 L 78.73045117302827 231.8979108625788 L 82.61322865943053 240.865276571028 L 86.68379993880205 249.68557141302549 L 90.93565296543805 258.32705185191384 L 95.3619856815099 266.7586178897931 L 99.9557168989051 274.9499249939245 L 104.70949762761987 282.871493304284 L 109.61572283257455 290.4948137292218 L 114.66654360004588 297.7924505474054 L 119.85387969425732 304.73814014679226 L 125.1694324840308 311.3068855452681 L 130.6046982188268 317.47504635279364 L 136.1509816329317 323.22042385127537 L 141.79940985602587 328.52234088598163 L 147.54094660788672 333.361716280971 L 153.36640665450759 337.7211335107203 L 159.26647050251137 341.58490338080753 L 165.23169930835496 344.93912049207097 L 171.2525499784633 347.7717132850305 L 177.3193904361438 350.07248748446415 L 180.36702626963836 351.0207793900553 L 183.422515030855 351.83316278779216 L 186.48463456502915 352.508906587451 L 189.5521600651748 353.04740266522356 L 192.62386456199172 353.44816641098714 L 195.69851941463668 353.7108371644214 L 198.77489480216346 353.8351785395779 L 201.85176021543543 353.8210786376118 L 204.9278849493099 353.6685501474832 L 208.00203859491003 353.3777303345378 L 211.07299153176407 352.9488809169775 L 214.13951541964332 352.3823878303317 L 217.20038368987906 351.6787608801412 L 220.25437203597426 350.83863328316795 L 223.30025890331027 349.8627610975418 L 229.36285867295246 347.5074172073524 L 235.37848413246036 344.6212059041112 L 241.33751156436375 341.21451443177625 L 247.230407795963 337.29960320086184 L 253.0477454503722 332.8905616642029 L 258.7802180283091 328.0032576101381 L 264.41865479651176 322.65528005560697 L 269.95403545895346 316.865875944683 L 275.377504587393 310.6558808803586 L 280.6803857881684 304.0476441388778 L 285.8541955825809 297.0649482364681 L 290.89065697864675 289.7329233379721 L 295.781712712519 282.0779568153879 L 300.5195381383935 274.12759828182595 L 305.09655374627147 265.9104604426479 L 309.50543728755736 257.45611612063306 L 313.7391354890973 248.7949918257435 L 317.7908753369095 239.95825825254906 L 321.6541749115625 230.97771809938607 L 325.3228537578639 221.88569161298534 L 328.7910427722687 212.7149002704902 L 332.05319359219504 203.49834901746476 L 335.10408747221965 194.26920748574003 L 337.9388436329566 185.06069061855393 L 340.5529270692648 175.9059391326229 L 342.9421558052874 166.83790024735112 L 345.1027075847219 157.88920911041862 L 347.0311259856144 149.09207134649117 L 348.72432594989704 140.47814715175065 L 350.17959871882397 132.07843735137726 L 351.39461616640665 123.92317183005188 L 352.36743452391863 116.0417007370238 L 353.0964974895114 108.46238885725948 L 353.58063871796537 101.2125135288515 L 353.81908368659276 94.3181664740563 L 353.8114509343094 87.804159897269 L 353.55775267189074 81.693937187885 L 353.05839476243716 76.00948854940754 L 352.3141760720797 70.77127185846803 L 351.326287191965 65.99813903855886 L 350.0963085335627 61.70726821346659 L 348.6262078003448 57.914101884577065 L 346.91833683987977 54.632291354546226 L 344.97542788137764 51.87364759735195 L 342.8005891647074 49.64809875154259 L 341.62726907593697 48.737813691707686 L 340.3972999678746 47.96365438965893 L 339.11117381176405 47.326317536513926 L 337.76940504091954 46.826376692421604 L 336.3725303449597 46.46428177039681 L 334.9211084551382 46.24035863142856 L 333.4157199208587 46.154808791227595 L 331.8569668774634 46.20770923887562 L 330.24547280538656 46.39901236754048 L 326.86686071764484 47.196013630169034 L 323.28528871624144 48.54294423522586 L 319.50648655235125 50.434956687043126 L 315.53649950333477 52.86524178392261 L 311.38167870158503 55.82505312390853 L 307.0486709740699 59.303738582390054 L 302.5444082088286 63.28877864824503 L 297.8760962654268 67.7658314805644 L 293.05120344712066 72.7187845237876 L 288.0774485531634 78.12981249550796 L 280.3551676348818 87.06221222828425 L 272.3436948862823 96.90879072135385 L 264.0718629579071 107.58984451055838 L 255.5694415121927 119.01891544309981 L 243.92717868575198 135.2605806554866 L 232.00393182184308 152.4333753461037 L 216.82106085118573 174.83150401837392 L 164.86001764366154 252.12668756595335 L 153.00284351135406 269.0797065037482 L 141.44629079783198 285.039170792389 L 133.02071378878568 296.21803396370683 L 124.8361898811511 306.61805698999956 L 116.92217452277005 316.1550565315305 L 109.30714962282123 324.75183502148207 L 104.41015321332165 329.925981115484 L 99.66608016726765 334.63253398069185 L 95.08251998951762 338.85455510925954 L 90.66680539858272 342.57684978435844 L 86.42600059583917 345.78602176475465 L 82.36688996431455 348.4705214968087 L 78.49596721512194 350.6206876803969 L 74.81942499890688 352.22878203915934 L 71.3431449989288 353.28901716993755 L 68.07268852162048 353.79757737117774 L 66.51629220897428 353.84432962949893 L 65.01328759968516 353.75263237533426 L 63.56427587555763 353.52256813002316 L 62.16983662196114 353.1543439358575 L 60.83052759600483 352.6482911697577 L 59.54688450344193 352.00486524505567" stroke-linecap="round" stroke-linejoin="round" stroke-miterlimit="10" stroke-width="5" stroke-dasharray=""/></g></g></g><g id="labels-f2903449"/><g id="labels-f2903449"/></g></svg>