<svg version="1.1" xmlns="http://www.w3.org/2000/svg" xmlns:xlink="http://www.w3.org/1999/xlink" width="800" height="800"><defs/><g transform="scale(2,2)"><g id="background-9c19c530"><rect fill="white" stroke="none" x="0" y="0" width="400" height="400" class="dcg-svg-background"/></g><g id="graphpaper-9c19c530"><g id="axis-9c19c530"><g><g><path fill="none" stroke="rgb(0,0,0)" class="dcg-svg-tickmark" paint-order="fill stroke markers" d="" stroke-opacity="0.9" stroke-miterlimit="2" stroke-width="2" stroke-dasharray=""/></g></g></g></g><g id="expressions-9c19c530"><g id="sketch-9c19c530"><title>Expression 1</title><path fill="#c74440" stroke="none" paint-order="stroke fill markers" d="" fill-opacity="0.4"/><g><path fill="none" stroke="#c74440" class="dcg-svg-curve" paint-order="fill stroke markers" d=" M 200 200 L 200 200 L 168.1363586771508 152.45947471457308 L 152.45947471457305 129.545153344982 L 137.0866878767765 107.64416489170343 L 125.81590611740351 92.07359025320613 L 114.81210698680012 77.37662960531327 L 104.11489227915942 63.67224799533318 L 93.76276041582332 51.071376005828114 L 87.07150532099293 43.33461807450334 L 80.5609117275216 36.161686339800355 L 74.24139519630629 29.578395610127416 L 68.12306560570542 23.6084386230105 L 62.215710977889785 18.273300776823334 L 56.528781820095475 13.592182806554717 L 51.07137600582817 9.581931681896833 L 45.85222422020615 6.2569799763469405 L 40.87967599272682 3.62929392552806 L 38.488379918977216 2.5799797972299245 L 36.16168633980038 1.7083303616627177 L 33.900525901605874 1.0151300444838114 L 31.705803038420726 0.5010026791890994 L 29.578395610127473 0.1664109457047971 L 27.51915455133235 0.011655954006727143 L 25.528903531002697 0.036876973141829694 L 23.608438623010528 0.24205130589521673 L 21.758527987712995 0.6269943092162293 L 19.979911564698995 1.1913595603847966 L 18.273300776823334 1.934639168768399 L 16.63937824564661 2.856164232889313 L 15.078797518395959 3.9551054423909022 L 13.592182806554717 5.230473824360956 L 12.180128736186504 6.681121633340496 L 10.843200110092198 8.305743384217152 L 9.581931681896862 10.102877027073902 L 8.396827942155 12.070905262935014 L 7.288362916561425 14.208056999226159 L 6.2569799763469405 16.512408943638036 L 5.303091660936133 18.981887334959822 L 4.427079512936757 21.61426980932407 L 3.62929392552806 24.407187400184426 L 2.910054002307959 27.35812667022526 L 2.269647429656061 30.464431973286025 L 1.7083303616627177 33.72330784426339 L 0.8238310924720054 40.68690555278266 L 0.25797120488340397 48.22385836381565 L 0.011655954006727143 56.307041386174745 L 0.08527939169894694 64.90736388976987 L 0.4787237361652785 73.99387400082156 L 1.1913595603847966 83.53387009518369 L 2.2220467990597115 93.4930184888757 L 3.56913657247631 103.83547700227027 L 5.230473824360956 114.52402395323396 L 7.203400769510353 125.52019211498886 L 9.48476114568092 136.78440715658922 L 12.070905262934986 148.27613006777784 L 14.957695842366348 159.9540030556459 L 18.14051463486365 171.77599838802655 L 21.61426980932407 183.6995696479462 L 25.373404098496678 195.6818048547808 L 29.411903689424747 207.67958090104707 L 33.72330784426336 219.64971874902173 L 38.30071923608196 231.54913882864975 L 43.13681498311601 243.335016077476 L 48.22385836381562 254.96493406462488 L 53.553711193949766 266.3970376441469 L 59.11784684596469 277.59018358834606 L 64.90736388976984 288.50408865897043 L 70.91300033312578 299.099474583369 L 77.12514843885772 309.3382094138574 L 83.53387009518354 319.18344476155283 L 90.12891271457472 328.5997484107818 L 96.89972563570709 337.5532318367948 L 103.83547700227041 346.0116721678599 L 110.92507109162567 353.94462815280485 L 118.1571660655966 361.32354971664813 L 125.52019211498884 368.121880710039 L 133.00236996881912 374.3151544827176 L 136.78440715658928 377.1778422593204 L 140.5917297386335 379.88108193703556 L 144.42281483668253 382.42244078261604 L 148.2761300677778 384.7996317446376 L 152.15013415720358 387.01051551168985 L 156.04327755497658 389.05310243761267 L 159.95400305564579 390.92555433204325 L 163.8807464211534 392.62618611466326 L 167.8219370065089 394.1534673316577 L 171.77599838802652 395.5060235330194 L 175.74134899387394 396.68263750946215 L 179.7164027366796 397.6822503878261 L 183.69956964794625 398.50396258399263 L 187.68925651401736 399.14703461244903 L 191.6838675133418 399.61088775177586 L 195.68180485478078 399.8951045654568 L 199.6814694167027 399.9994292775436 L 203.68126138661074 399.92376800283705 L 207.67958090104696 399.6681888313775 L 211.674828685516 399.23292176716814 L 215.66540669417313 398.6183585211871 L 219.6497187490217 397.825052158874 L 223.62617117836345 396.85371660240827 L 227.59317345424543 395.7052259882277 L 231.5491388286498 394.3806138803642 L 235.4924849681721 392.8810723403061 L 239.42163458693395 391.20795085422355 L 243.33501607747598 389.3627551185217 L 247.23106413937955 387.3471456848158 L 251.1082204053663 385.1629364655464 L 254.9649340646248 382.81209310158135 L 258.7996624831134 380.29673119327106 L 262.610871820594 377.6191143965509 L 266.39703764414674 374.7816523858046 L 270.15664553792396 371.7868986853184 L 277.590183588346 365.33643564640715 L 284.8995938967165 358.2909399810932 L 292.0731829657996 350.6757678655493 L 299.099474583369 342.5183256959923 L 305.96722818169866 333.84797145525226 L 312.665456820074 324.69590905573705 L 319.18344476155283 315.0950760390434 L 325.51076461585876 305.08002503637584 L 331.637294020981 294.68679941638686 L 337.5532318367948 283.9528035679718 L 343.2491138247941 272.9166682848603 L 348.715827788855 261.61811173647544 L 353.94462815280485 250.09779652541482 L 358.92714995147946 238.39718334599084 L 363.65542221288206 226.55838177050353 L 368.1218807100389 214.6239987002528 L 372.31938006214807 202.63698502670442 L 376.24120516566506 190.64048105466202 L 379.8810819370355 178.67766124375547 L 383.23318734989095 166.79157882700872 L 386.29215875064847 155.02501086569328 L 389.05310243761267 143.4203042981014 L 391.51160148985423 132.01922353629746 L 393.6637228333414 120.862800159334 L 395.5060235330194 109.99118524387647 L 397.0355563007719 99.44350486368545 L 398.2498742104534 89.25771927800186 L 399.14703461244903 79.47048631560554 L 399.7256022414998 70.11702944621777 L 399.98465151282016 61.2310110140474 L 399.92376800283705 52.84441108970128 L 399.54304911217866 44.98741237646672 L 398.8431039098543 37.68829158517025 L 397.825052158874 30.973317668556632 L 397.1972254723341 27.842522420219666 L 396.4905225248665 24.86665728142347 L 395.7052259882277 22.048400329928086 L 394.8416499705619 19.390287806763098 L 393.90013989076175 16.89471183378214 L 392.8810723403061 14.563918260914534 L 391.7848549326277 12.400004645052206 L 390.6119261400736 10.404918362389566 L 389.3627551185218 8.580454855916543 L 388.0378415197257 6.928256019641594 L 386.63771529145953 5.449808720997254 L 385.1629364655465 4.146443462760033 L 383.6140949338534 3.0193331856878274 L 381.9918102123421 2.0694922129523547 L 380.296731193271 1.2977753373168355 L 378.52953588564696 0.7048770518798904 L 376.69093114403074 0.29133092507899505 L 374.7816523858044 0.0575091205148226 L 372.8024632970149 0.0036220620288816008 L 370.7541555269087 0.12971824433660117 L 368.6375483712833 0.4356841893851424 L 366.4534884447802 0.9212445484760394 L 364.20284934224946 1.585962350060413 L 361.8865312893239 2.4292393929839875 L 359.50546078234095 3.450316784827635 L 354.55289751119744 6.022037830982839 L 349.35308257356235 9.291870069885135 L 343.9143345641015 13.248045636469868 L 338.2453543194255 17.876326570854076 L 332.3552109986074 23.16005605961746 L 326.25332757446404 29.0802183823439 L 319.9494657588086 35.61550734767934 L 313.4537103857938 42.742402972614144 L 306.77645327832903 50.43525612902204 L 299.92837662338053 58.6663808528244 L 289.360010481086 71.95702286128548 L 278.4700447982909 86.28411309858608 L 267.297671691701 101.53168044602216 L 255.8830996397852 117.57630295164869 L 240.3580261512258 139.98372472698335 L 220.60045974701958 169.16785636655393 L 156.97600238243692 263.9038387244547 L 141.5048655140261 286.13165693317296 L 130.14173353465287 302.00640804875087 L 119.03001587668052 317.0554648286073 L 108.20970272446165 331.15701217133073 L 97.71973552080955 344.19690462284115 L 90.92864587193976 352.2478536841763 L 84.31204712236027 359.75087488020006 L 77.88052441860434 366.6789654368979 L 71.64436682501326 373.0071917097051 L 65.61355086342772 378.7127789177043 L 59.79772455288054 383.7751931082414 L 54.20619197482483 388.17621505698145 L 48.84789838858916 391.9000058374427 L 43.731415920870006 394.9331638240268 L 38.86492985215747 397.2647729233996 L 36.527884353765444 398.1647748528426 L 34.25622552203296 398.886441860639 L 32.05086199020414 399.429124495193 L 29.912675874287032 399.79233437876337 L 27.842522420219666 399.97574464697084 L 25.841229661781796 399.97919024295385 L 23.909598089393228 399.8026680659086 L 22.04840032992817 399.4463369738795 L 20.25838083767465 398.9105176407978 L 18.540255596563213 398.19569226789656 L 16.89471183378214 397.30250414976206 L 15.322407744896168 396.2317570954124 L 13.823972230577283 394.9844147049229 L 12.400004645052235 393.5615995022523 L 11.051074556369258 391.9645919250456 L 9.77772151857829 390.19482917232756 L 8.580454855916571 388.25390391112035 L 7.459753459086016 386.14356284315033 L 6.41606559370274 383.86570513293526 L 5.449808720997197 381.4223806986631 L 4.56136933083539 378.8157883674054 L 3.751102787127593 376.04827389632084 L 3.0193331856878274 373.12232786163156 L 2.3663532245999477 370.0405834172733 L 1.7924240871420238 366.8058139252344 L 0.8826048280290308 359.88897918736916 L 0.29133092507899505 352.3967167838064 L 0.019548290404969748 344.355990768527 L 0.06769171824515752 335.79573907224335 L 0.4356841893851424 326.7467693571001 L 1.1229369943719405 317.24164814235627 L 2.128350675323645 307.31458360008696 L 3.450316784827635 297.0013024427 L 5.086720459112968 286.338921345356 L 7.034943801381843 275.36581336601466 L 9.291870069885135 264.12146984386766 L 11.853888664045343 252.64635827316053 L 14.716900900646777 240.9817766639141 L 17.876326570853905 229.16970491368585 L 21.32711126756962 217.25265372526877 L 25.063734471406946 205.27351161407165 L 29.0802183823439 193.2753905557723 L 33.37013748292679 181.30147082976615 L 37.92662881772901 169.39484561678412 L 42.742402972614144 157.5983659099815 L 47.80975573624514 145.95448629763266 L 53.12058042517731 134.50511217246174 L 58.666380852824375 123.29144891747801 L 64.43828492154265 112.35385361109765 L 70.42705881609649 101.73168978523681 L 76.62312177579102 91.46318575910948 L 83.01656142164764 81.58529705855511 L 89.5971496140934 72.13357341605662 L 96.35435881580494 63.142030830089766 L 103.27737893351998 54.64302914426381 L 110.355134611883 46.66715558682651 L 117.57630295164866 39.24311468967579 L 124.92933162390776 32.3976249830385 L 132.40245735134644 26.15532283761749 L 136.18032753012955 23.26747464707313 L 139.98372472698333 20.538673800258323 L 143.81112763373963 17.971376033747532 L 147.66100534026745 15.567891742242836 L 151.5318179468152 13.330383899376272 L 155.42201717995079 11.260866111179041 L 159.33004701184885 9.361200803972423 L 163.25434428268338 7.633097548309507 L 167.19333932586926 6.078111520476568 L 171.14545659590888 4.697642102940421 L 175.10911529858762 3.492931624998022 L 179.08273002327292 2.465064244763937 L 183.0647113770557 1.6149649735013725 L 187.05346662048714 0.9433988431744353 L 191.04740030465157 0.4509702179713031 L 195.04491490932807 0.13812225041647253 L 199.04441148197427 0.005136482564239486 L 203.04429027728634 0.05213259262939118 L 207.04295139707745 0.27906828728498567 L 211.0387954302149 0.6857393397236251 L 215.03022409236183 1.2717797734474914 L 219.01564086527216 2.0366621916227814 L 222.9934516353749 2.979698251701194 L 226.96206533139872 4.10003928488166 L 230.91989456077977 5.396677059855193 L 234.8653562445959 6.8684446901444005 L 238.79687225077942 8.514017684223774 L 242.7128700253477 10.331915137471299 L 246.61178322140285 12.320501064883302 L 250.4920523256516 14.477985873350804 L 254.35212528218847 16.802427972172012 L 258.1904581132978 19.291735520353114 L 262.00551553702456 21.94366830912412 L 265.7957715812654 24.75583977797507 L 269.559710194139 27.72571916239957 L 277.0026241535565 34.127771392792766 L 284.32235034067844 41.1267845256603 L 291.5071787550643 48.69756967175181 L 298.545615203932 56.81288018000737 L 305.42639969041716 65.44350969608158 L 312.13852442716313 74.55839727367749 L 318.67125144643535 84.12473916041367 L 325.0141297785764 94.10810685590685 L 331.1570121713307 104.47257101719747 L 337.09007132328094 115.18083076558182 L 342.8038156054364 126.19434792949981 L 348.28910424581204 137.4734857403313 L 353.5371619527165 148.97765148196547 L 358.539592953344 160.66544258073986 L 363.28839442522246 172.4947956099994 L 367.77596929901995 184.42313767300624 L 371.9951384122372 196.4075396193983 L 375.939151994334 208.40487054376817 L 379.6017004649241 220.37195301035214 L 382.97692452775607 232.26571844516738 L 386.0594245443393 244.04336213637492 L 388.84426917221174 255.6624972850146 L 391.32700325403766 267.08130755171226 L 393.50365494490757 278.2586975503424 L 395.3707420664438 289.1544407470436 L 396.92527767754257 299.72932423229724 L 398.16477485284264 309.9452898450612 L 399.08725066127545 319.7655711410474 L 399.69122933833205 329.15482571222265 L 399.97574464697084 338.0792623813071 L 399.9403414233915 346.50676281352946 L 399.5850763051994 354.40699710794036 L 398.9105176407978 361.7515329523102 L 397.91774458015163 368.51393794874514 L 397.30250414976206 371.66915166985393 L 396.60834534837755 374.66987474177995 L 395.8355458302634 377.5134067163009 L 394.9844147049229 380.19718860657304 L 394.05529241345795 382.7188051900445 L 393.0485505923972 385.0759871819938 L 391.9645919250456 387.26661327773417 L 390.8038499804179 389.28871206164183 L 389.56678903981543 391.1404637812985 L 388.25390391112035 392.82020198514647 L 386.86571973087956 394.326415022181 L 385.40279175425616 395.65774740233496 L 383.8657051329353 396.81300101632854 L 382.2550746810713 397.7911362138865 L 380.57154462937 398.59127273935326 L 378.81578836740556 399.2126905238632 L 376.98850817427297 399.654830333355 L 375.0904349376857 399.91729427184345 L 373.12232786163156 399.9998461394998 L 371.0849741626998 399.90241164521524 L 368.9791887552054 399.62507847345796 L 366.8058139252348 399.1680962053631 L 364.56571899374177 398.53187609412663 L 362.25979996883177 397.716990694905 L 359.8889791873694 396.72417334955463 L 354.95645112212674 394.20847601753746 L 349.7760257907022 390.99383789184367 L 344.355990768527 387.0918281983327 L 338.70501695542475 382.5164899582369 L 332.832144704019 377.284289448448 L 326.7467693571001 371.4140569407024 L 320.45862621707823 364.9269189329383 L 313.9777749715791 357.8462221167149 L 307.314583600087 350.1974493543352 L 300.479711787392 342.00812796806133 L 289.9294929069203 328.77559475710837 L 279.05562496418196 314.50068311911235 L 267.8972421414029 299.2989418113333 L 256.4945025671371 283.29342184527985 L 240.98177666391413 260.92713911027886 L 221.23402714883963 231.7759569093061 L 157.59836590998117 137.00238708221482 L 142.11436586208896 114.73175924392787 L 130.73902251839877 98.81671092370956 L 119.61294390076165 83.7206941747239 L 108.77617187747872 69.56590421744738 L 98.26770712552498 56.46691748011369 L 91.46318575910948 48.373555682551 L 84.83230014219392 40.825885347620755 L 78.38565827725128 33.851069938022476 L 72.13357341605638 27.47421125733476 L 66.08604756067956 21.71825911062635 L 60.2527554624194 16.603928709943972 L 54.64302914426381 12.14962612191485 L 49.26584297164359 8.371382025786886 L 44.12979929536405 5.2827940202923855 L 39.24311468967582 2.8949776869760626 L 36.89574098413743 1.9666438096804484 L 34.61360680751051 1.2165265861056014 L 32.397624983038895 0.6453010711214233 L 30.24868187390473 0.2534813291346154 L 28.167637028700653 0.041419971466126526 L 26.15532283761749 0.009307839024074838 L 24.21254419950114 0.15717383056016843 L 22.340078199903502 0.4848848766626759 L 20.53867380025821 0.9921460595099347 L 18.809051538307642 1.6785008782763668 L 17.151903239894068 2.5433316599528553 L 15.567891742242693 3.585860115210153 L 14.057650628832704 4.805148038806749 L 12.621783975972647 6.200098153911455 L 11.260866111179041 7.769455099576703 L 9.975441383453216 9.511806560479613 L 8.76602394554655 11.425584537910993 L 7.633097548309536 13.509066760867057 L 6.57711534719536 15.76037823597801 L 5.598499721004913 18.17749293487489 L 4.697642102940591 20.75823561747933 L 3.87490282403823 23.500283789572563 L 3.130610969040106 26.401169792881063 L 2.465064244763937 29.45828302580682 L 1.8785288610259556 32.66887229278879 L 1.3712394241591426 36.03004828019499 L 0.5951782485999786 43.191928294474934 L 0.13812225041647253 50.91814803449918 L 0.0008026217056169571 59.18090145251841 L 0.18343904458006932 67.95045155893163 L 0.6857393397235967 77.19523744333242 L 1.5068999338157312 86.88198785970864 L 2.645607145077321 96.9758409669954 L 4.100039284881717 107.44046979406026 L 5.867869572067491 118.23821297756948 L 7.946269855292201 129.33021030222446 L 10.331915137471071 140.67654255557676 L 13.020988895063368 152.23637519408345 L 16.009189183695014 163.96810530336575 L 19.2917355203534 175.82951132377977 L 22.8633765311385 187.77790500243202 L 26.718398352342774 199.7702850247975 L 30.85063377141313 211.7634917730099 L 35.25347209317559 223.71436265388752 L 39.919869715537345 235.57988743764892 L 44.84236139774822 247.31736304830306 L 50.01307220319134 258.8845472486028 L 55.42373009760502 270.2398106664883 L 61.06567918256937 281.3422866158668 L 66.92989354310058 292.1520181725565 L 73.00699168718742 302.6301019760631 L 79.28725155417784 312.73882823966534 L 85.76062606800197 322.4418164649293 L 92.4167592103512 331.7041463722144 L 99.24500258809591 340.49248357596935 L 106.23443246844721 348.7751995525269 L 113.3738672545941 356.5224854686303 L 120.65188537387756 363.7064594610474 L 128.05684354986784 370.3012669811652 L 135.57689542912343 376.2831738434503 L 139.37632865085988 379.0374735639364 L 143.20001053282976 381.6306516428815 L 147.04641165326478 384.06037439504985 L 150.9139935029994 386.3244552339646 L 154.80120910086146 388.42085663969226 L 158.70650361244066 390.3476919924707 L 162.62831497200227 392.1032272705397 L 166.56507450729328 393.685882610644 L 170.51520756698693 395.0942337298034 L 174.47713415052985 396.3270132070719 L 178.44926954011152 397.38311162412987 L 182.4300249345379 398.2615785636863 L 186.41780808472726 398.96162346479065 L 190.41102393058924 399.4826163342833 L 194.40807523902768 399.8240883137478 L 198.4073632428125 399.9857321014513 L 202.40728828006604 399.96740222889537 L 206.40625043410287 399.76911519172813 L 210.40265017338305 399.3910494348992 L 214.39488899129327 398.8335451920708 L 218.3813700455363 398.0971041794312 L 222.36049879684276 397.1823891441836 L 226.33068364676652 396.0902232681183 L 230.29033657430335 394.8215894268044 L 234.23787377107485 393.3776293050694 L 238.17171627483822 391.75964236955815 L 242.09029060104035 389.96908469930173 L 245.9920293721985 388.0075676753445 L 249.8753719448266 385.87685653060987 L 253.7387650336729 383.5788687613091 L 257.58066333301304 381.1156724013248 L 261.3995301347519 378.48948416112034 L 265.19383794308635 375.70266743285003 L 268.96206908548385 372.75773016346375 L 276.4142834368018 366.4042348931796 L 283.7442512354653 359.451864072289 L 290.9402460966395 351.9256387280879 L 297.99075596361087 343.85264514446624 L 304.88450152461894 335.2619373805411 L 311.6104542573553 326.1844327074086 L 318.1578540722408 316.65280033936375 L 324.5162265262747 306.7013438600043 L 330.6753995799115 296.3658777663738 L 336.6255198701529 285.68359857544226 L 342.3570684738246 274.6929509568229 L 347.86087613582646 263.43348937346656 L 353.12813793798233 251.94573572831376 L 358.1504273850313 240.2710335292019 L 362.91970988522314 228.45139909688092 L 367.42835560394934 216.52937035163725 L 371.66915166985353 204.5478537227042 L 375.6353137138856 192.54996973146203 L 379.3204967228436 180.57889780412012 L 382.71880519004424 168.6777208724098 L 385.8248025468737 156.88927032155644 L 388.63351986013845 145.25597184354422 L 391.14046378129865 133.8196927504385 L 393.3416237348662 122.62159129727583 L 395.2334783344712 111.70196855679045 L 396.8130010163287 101.10012337906745 L 398.07766488109417 90.85421095813093 L 399.02544673636487 81.00110551443733 L 399.654830333355 71.57626758750695 L 399.9648087925706 62.613616416273175 L 399.9548862146022 54.145407866449716 L 399.6250784734579 46.20211834425049 L 398.9759131911683 38.812335114229796 L 398.00842889370364 32.0026534160084 L 397.4057809618005 28.823093252078024 L 396.72417334955446 25.797580750126514 L 395.96387869092274 22.928838667189353 L 395.1252010936315 20.219448677506563 L 394.20847601753746 17.671849049190854 L 393.21407014044826 15.28833244995019 L 392.14238121145615 13.071043883840986 L 390.99383789184367 11.021978760910088 L 389.76889958362483 9.142981101460379 L 388.468056245791 7.435741876557529 L 387.09182819833273 5.901797486268094 L 385.6407659141196 4.542528377005368 L 384.11544979871803 3.359157799219986 L 382.5164899582369 2.352750706556577 L 380.84452595529325 1.5242127974680955 L 379.10022655319534 0.8742897001480685 L 377.2842894484477 0.40356630151586614 L 375.3974409916797 0.11246622085712943 L 373.4404358971163 0.001251428595850257 L 371.4140569407024 0.07002201053830959 L 369.3191146470025 0.3187160778026339 L 367.1564469650019 0.7471098225146022 L 364.9269189329383 1.3548177192197386 L 362.6314223322977 2.1412928718299042 L 360.27087533111387 3.1058275057935987 L 355.35843251805665 5.565443693156055 L 350.1974493543352 8.72481431909938 L 344.7961823120606 12.572569061081083 L 339.16327226629096 17.094860157107064 L 333.30773067147715 22.275412242718545 L 327.23892514505485 28.095580924733724 L 320.96656448125685 34.53441988092388 L 314.5006831191124 41.56875624416034 L 307.8516250894876 49.17327399970512 L 301.0300274668392 57.320605095532756 L 290.49806289253866 70.49472742525458 L 279.64040301800577 84.71713458390482 L 268.4961236939225 99.872702813517 L 257.10533229147757 115.83875485213258 L 241.60511136839602 138.16338794993482 L 221.86737910654145 167.2809552238861 L 154.31802293676003 267.76469383573937 L 138.90369656476025 289.8036184548726 L 127.5941154423892 305.50186339505666 L 116.54511731545274 320.3461199174581 L 105.79646664572306 334.2162306833054 L 95.38684696846073 346.99992360975506 L 88.65400581999307 354.8673321483831 L 82.0992945096676 362.1773855279267 L 75.73319917731813 368.90377545012916 L 69.56590421744795 375.02229417489946 L 63.60727598637291 380.5109216420374 L 57.86684701815753 385.349904719666 L 52.35380077459092 389.5218282941811 L 47.076956953608914 393.01167794585126 L 42.044757379658506 395.8068939845159 L 39.62293059440361 396.9407720185683 L 37.265252498578946 397.89741665090713 L 34.972666131987154 398.6759669659349 L 32.746088498607435 399.2757223209188 L 30.58641019980587 399.69614297652174 L 28.49449507810661 399.93685058253106 L 26.47117987166655 399.9976285183486 L 24.517273879590704 399.87842208793455 L 22.633558638224912 399.57933856903014 L 20.820787608549466 399.1006471166148 L 19.079685874806273 398.44277852068507 L 17.410949854474495 397.6063248185724" stroke-linecap="round" stroke-linejoin="round" stroke-miterlimit="10" stroke-width="5" stroke-dasharray=""/></g></g></g><g id="labels-9c19c530"/><g id="labels-9c19c530"/></g></svg>