<svg version="1.1" xmlns="http://www.w3.org/2000/svg" xmlns:xlink="http://www.w3.org/1999/xlink" width="320" height="320"><defs/><g transform="scale(2,2)"><g id="background-77527709"><rect fill="white" stroke="none" x="0" y="0" width="160" height="160" class="dcg-svg-background"/></g><g id="graphpaper-77527709"><g id="axis-77527709"><g><g><path fill="none" stroke="rgb(0,0,0)" class="dcg-svg-tickmark" paint-order="fill stroke markers" d="" stroke-opacity="0.9" stroke-miterlimit="2" stroke-width="2" stroke-dasharray=""/></g></g></g></g><g id="expressions-77527709"><g id="sketch-77527709"><title>Expression 1</title><path fill="#c74440" stroke="none" paint-order="stroke fill markers" d="" fill-opacity="0.4"/><g><path fill="none" stroke="#c74440" class="dcg-svg-curve" paint-order="fill stroke markers" d=" M 80 80 L 80 80 L 67.25454347086033 60.98378988582923 L 60.983789885829225 51.8180613379928 L 54.8346751507106 43.05766595668137 L 50.326362446961404 36.829436101282454 L 45.92484279472004 30.950651842125303 L 41.64595691166377 25.468899198133272 L 37.50510416632933 20.428550402331247 L 34.82860212839717 17.333847229801336 L 32.22436469100864 14.464674535920139 L 29.696558078522514 11.83135824405096 L 27.24922624228217 9.443375449204197 L 24.88628439115591 7.309320310729333 L 22.611512728038193 5.43687312262189 L 20.42855040233127 3.832772672758736 L 18.340889688082463 2.502791990538782 L 16.351870397090728 1.4517175702112297 L 15.395351967590884 1.0319919188919755 L 14.464674535920153 0.6833321446650871 L 13.560210360642358 0.4060520177935274 L 12.68232121536829 0.20040107167564258 L 11.831358244050989 0.06656437828192452 L 11.007661820532931 0.004662381602699384 L 10.211561412401082 0.014750789256737562 L 9.443375449204211 0.09682052235808669 L 8.703411195085195 0.2507977236864889 L 7.9919646258796035 0.4765438241539215 L 7.309320310729333 0.7738556675073625 L 6.65575129825865 1.1424656931557138 L 6.0315190073583835 1.5820421769563637 L 5.43687312262189 2.092189529744374 L 4.872051494474604 2.672448653336204 L 4.3372800440368735 3.3222973536868636 L 3.8327726727587503 4.0411508108295635 L 3.358731176861994 4.828362105174008 L 2.9153451666245758 5.683222799690469 L 2.5027919905387677 6.604963577455209 L 2.1212366643744645 7.592754933983926 L 1.7708318051746943 8.645707923729631 L 1.4517175702112297 9.76287496007376 L 1.1640216009231779 10.943250668090101 L 0.9078589718624244 12.185772789314413 L 0.6833321446650871 13.489323137705355 L 0.3295324369887993 16.274762221113058 L 0.10318848195336727 19.289543345526255 L 0.004662381602699384 22.522816554469898 L 0.034111756679578775 25.96294555590795 L 0.1914894944661114 29.59754960032862 L 0.4765438241539215 33.41354803807348 L 0.8888187196238846 37.39720739555028 L 1.427654628990524 41.53419080090811 L 2.092189529744374 45.809609581293586 L 2.881360307804144 50.20807684599554 L 3.7939044582723653 54.7137628626357 L 4.828362105173994 59.31045202711113 L 5.983078336946534 63.98160122225836 L 7.25620585394546 68.71039935521063 L 8.645707923729617 73.47982785917847 L 10.149361639398677 78.27272194191232 L 11.764761475769902 83.07183236041882 L 13.489323137705341 87.85988749960869 L 15.320287694432778 92.6196555314599 L 17.254725993246403 97.3340064309904 L 19.289543345526248 101.98597362584995 L 21.421484477579902 106.55881505765876 L 23.647138738385877 111.03607343533842 L 25.962945555907943 115.40163546358816 L 28.365200133250312 119.63978983334759 L 30.850059375543083 123.73528376554295 L 33.413548038073415 127.67337790462113 L 36.05156508582989 131.4398993643127 L 38.75989025428283 135.02129273471792 L 41.53419080090816 138.40466886714395 L 44.370028436650266 141.57785126112196 L 47.26286642623864 144.52941988665924 L 50.208076845995535 147.2487522840156 L 53.20094798752765 149.72606179308707 L 54.71376286263572 150.8711369037282 L 56.2366918954534 151.9524327748142 L 57.76912593467301 152.96897631304643 L 59.310452027111126 153.91985269785505 L 60.860053662881434 154.80420620467592 L 62.417311021990635 155.62124097504505 L 63.98160122225831 156.3702217328173 L 65.55229856846135 157.05047444586532 L 67.12877480260356 157.66138693266305 L 68.71039935521061 158.20240941320776 L 70.29653959754958 158.67305500378487 L 71.88656109467183 159.07290015513044 L 73.4798278591785 159.40158503359706 L 75.07570260560693 159.65881384497965 L 76.67354700533672 159.84435510071035 L 78.27272194191231 159.95804182618272 L 79.87258776668108 159.99977171101744 L 81.47250455464429 159.96950720113483 L 83.07183236041878 159.867275532551 L 84.6699314742064 159.69316870686725 L 86.26616267766924 159.44734340847484 L 87.85988749960869 159.1300208635496 L 89.45046847134537 158.7414866409633 L 91.03726938169817 158.28209039529108 L 92.61965553145991 157.75224555214567 L 94.19699398726884 157.15242893612242 L 95.76865383477357 156.48318034168943 L 97.3340064309904 155.7451020474087 L 98.89242565575182 154.93885827392631 L 100.44328816214653 154.06517458621857 L 101.98597362584991 153.12483724063253 L 103.51986499324536 152.11869247730843 L 105.04434872823761 151.04764575862038 L 106.55881505765869 149.91266095432184 L 108.06265821516958 148.71475947412736 L 111.03607343533841 146.13457425856285 L 113.9598375586866 143.3163759924373 L 116.82927318631985 140.27030714621972 L 119.63978983334758 137.00733027839692 L 122.38689127267946 133.5391885821009 L 125.06618272802959 129.87836362229484 L 127.67337790462113 126.03803041561737 L 130.2043058463435 122.03201001455034 L 132.6549176083924 117.87471976655473 L 135.02129273471792 113.58112142718872 L 137.29964552991765 109.1666673139441 L 139.486331115542 104.64724469459019 L 141.57785126112196 100.03911861016593 L 143.57085998059176 95.35887333839634 L 145.46216888515283 90.62335270820141 L 147.24875228401555 85.84959948010112 L 148.92775202485922 81.05479401068177 L 150.49648206626603 76.25619242186481 L 151.9524327748142 71.47106449750218 L 153.2932749399564 66.7166315308035 L 154.5168635002594 62.0100043462773 L 155.62124097504505 57.36812171924056 L 156.6046405959417 52.80768941451898 L 157.46548913333658 48.3451200637336 L 158.20240941320776 43.99647409755059 L 158.81422252030876 39.77740194547418 L 159.29994968418134 35.703087711200745 L 159.65881384497965 31.788194526242215 L 159.8902408965999 28.046811778487104 L 159.99386060512808 24.492404405618956 L 159.96950720113483 21.137764435880513 L 159.81721964487147 17.99496495058669 L 159.5372415639417 15.075316634068102 L 159.1300208635496 12.389327067422656 L 158.87889018893364 11.13700896808787 L 158.5962090099466 9.946662912569394 L 158.28209039529108 8.819360131971223 L 157.93665998822473 7.756115122705239 L 157.5600559563047 6.757884733512867 L 157.15242893612242 5.825567304365819 L 156.71394197305108 4.960001858020888 L 156.2447704560294 4.161967344955826 L 155.74510204740875 3.4321819423666113 L 155.21513660789026 2.7713024078566377 L 154.65508611658382 2.1799234883988987 L 154.0651745862186 1.6585773851040102 L 153.44563797354135 1.207733274275128 L 152.79672408493684 0.8277968851809447 L 152.1186924773084 0.5191101349267342 L 151.41181435425878 0.281950820751959 L 150.6763724576123 0.11653237003160655 L 149.91266095432178 0.02300364820592904 L 149.12098531880596 0.001448824811546956 L 148.30166221076348 0.05188729773463763 L 147.4550193485133 0.17427367575405128 L 146.58139537791206 0.36849781939041293 L 145.68113973689975 0.6343849400241623 L 144.75461251572955 0.9716957571936007 L 143.8021843129364 1.3801267139310482 L 141.82115900447897 2.40881513239313 L 139.74123302942496 3.716748027954054 L 137.56573382564062 5.299218254587942 L 135.29814172777017 7.1505306283416274 L 132.94208439944296 9.264022423846981 L 130.50133102978563 11.63208735293756 L 127.97978630352345 14.246202939071736 L 125.38148415431749 17.096961189045665 L 122.7105813113316 20.174102451608817 L 119.9713506493522 23.466552341129763 L 115.7440041924344 28.78280914451419 L 111.38801791931638 34.51364523943443 L 106.91906867668041 40.612672178408864 L 102.35323985591407 47.03052118065947 L 96.14321046049032 55.99348989079334 L 88.24018389880784 67.66714254662158 L 62.790400952974764 105.56153548978189 L 56.60194620561043 114.4526627732692 L 52.056693413861154 120.80256321950034 L 47.6120063506722 126.8221859314429 L 43.283881089784664 132.4628048685323 L 39.08789420832382 137.67876184913646 L 36.3714583487759 140.8991414736705 L 33.72481884894411 143.90034995208003 L 31.152209767441732 146.67158617475914 L 28.657746730005307 149.20287668388204 L 26.245420345371087 151.48511156708173 L 23.919089821152212 153.51007724329656 L 21.682476789929936 155.27048602279257 L 19.539159355435665 156.76000233497706 L 17.492566368348008 157.97326552961073 L 15.545971940862998 158.90590916935986 L 14.611153741506172 159.26590994113704 L 13.702490208813188 159.55457674425563 L 12.820344796081656 159.7716497980772 L 11.965070349714807 159.91693375150533 L 11.13700896808787 159.99029785878832 L 10.336491864712713 159.99167609718154 L 9.563839235757285 159.92106722636345 L 8.819360131971266 159.77853478955183 L 8.103352335069857 159.5642070563191 L 7.416102238625285 159.27827690715864 L 6.757884733512867 158.92100165990485 L 6.1289630979584615 158.49270283816494 L 5.529588892230919 157.99376588196918 L 4.960001858020902 157.42463980090093 L 4.420429822547703 156.78583677001825 L 3.91108860743131 156.07793166893103 L 3.4321819423666255 155.30156156444815 L 2.9839013836344037 154.45742513726015 L 2.566426237481096 153.5462820531741 L 2.1799234883988845 152.56895227946524 L 1.8245477323341532 151.52631534696218 L 1.5004411148510286 150.41930955852834 L 1.207733274275128 149.24893114465266 L 0.9465412898399848 148.01623336690932 L 0.7169696348568095 146.72232557009377 L 0.35304193121162086 143.95559167494767 L 0.11653237003160655 140.95868671352258 L 0.007819316161985057 137.7423963074108 L 0.027076687298063007 134.31829562889732 L 0.17427367575405128 130.69870774284004 L 0.4491747977487819 126.89665925694251 L 0.8513402701294552 122.9258334400348 L 1.3801267139310482 118.80052097708001 L 2.034688183645187 114.5355685381424 L 2.8139775205527258 110.14632534640586 L 3.716748027954054 105.64858793754706 L 4.7415554656181484 101.05854330926421 L 5.886760360258705 96.39271066556564 L 7.150530628341571 91.66788196547434 L 8.530844507027837 86.90106149010751 L 10.025493788562784 82.10940464562866 L 11.63208735293756 77.31015622230892 L 13.34805499317072 72.52058833190645 L 15.170651527091607 67.75793824671365 L 17.096961189045658 63.0393463639926 L 19.123902294498052 58.38179451905306 L 21.24823217007092 53.802044868984694 L 23.466552341129756 49.3165795669912 L 25.775313968617056 44.94154144443905 L 28.17082352643859 40.69267591409472 L 30.649248710316414 36.58527430364379 L 33.20662456865905 32.63411882342204 L 35.83885984563736 28.853429366422645 L 38.54174352632198 25.256812332035913 L 41.31095157340799 21.85721165770552 L 44.1420538447532 18.6668622347306 L 47.03052118065946 15.697245875870323 L 49.9717326495631 12.959049993215388 L 52.96098294053858 10.462129135046993 L 54.47213101205182 9.306989858829255 L 55.99348989079333 8.21546952010334 L 57.52445105349585 7.188550413499016 L 59.064402136106985 6.227156696897126 L 60.61272717872609 5.332153559750509 L 62.16880687198032 4.504346444471622 L 63.73201880473954 3.7444803215889664 L 65.30173771307335 3.0532390193238115 L 66.87733573034771 2.4312446081906245 L 68.45818263836355 1.8790568411761654 L 70.04364611943505 1.3971726499992059 L 71.63309200930917 0.9860256979055748 L 73.22588455082227 0.6459859894005433 L 74.82138664819486 0.37735953726978266 L 76.41896012186062 0.1803880871885184 L 78.01796596373123 0.05524890016658901 L 79.61776459278971 0.00205459302569011 L 81.21771611091452 0.02085303705175079 L 82.81718055883098 0.11162731491398858 L 84.41551817208595 0.2742957358894529 L 86.01208963694474 0.508711909378988 L 87.60625634610886 0.8146648766491182 L 89.19738065414995 1.1918793006804833 L 90.78482613255949 1.640015713952664 L 92.3679578243119 2.1586708239420886 L 93.94614249783837 2.7473778760577545 L 95.51874890031178 3.4056070736895094 L 97.08514801013908 4.132766054988522 L 98.64471328856115 4.928200425953321 L 100.19682093026063 5.791194349340316 L 101.74085011287539 6.720971188868802 L 103.27618324531912 7.716694208141234 L 104.80220621480983 8.777467323649645 L 106.31830863250616 9.902335911190022 L 107.82388407765559 11.090287664959831 L 110.80104966142261 13.651108557117112 L 113.72894013627136 16.45071381026412 L 116.60287150202569 19.479027868700726 L 119.41824608157282 22.725152072002942 L 122.17055987616688 26.177403878432628 L 124.85540977086526 29.82335890947099 L 127.46850057857414 33.64989566416547 L 130.00565191143056 37.64324274236274 L 132.46280486853226 41.789028406878984 L 134.8360285293124 46.07233230623273 L 137.12152624217453 50.477739171799925 L 139.31564169832484 54.989394296132524 L 141.41486478108658 59.591060592786185 L 143.4158371813376 64.26617703229594 L 145.31535777008895 68.99791824399975 L 147.110387719608 73.76925506920249 L 148.79805536489488 78.56301584775932 L 150.3756607977336 83.36194821750726 L 151.84068018596963 88.14878120414086 L 153.19076981110243 92.90628737806695 L 154.42376981773572 97.61734485454997 L 155.5377076688847 102.26499891400584 L 156.53080130161507 106.8325230206849 L 157.40146197796304 111.30347902013696 L 158.14829682657754 115.66177629881746 L 158.77011107101703 119.89172969291889 L 159.26590994113707 123.97811593802447 L 159.63490026451018 127.90622845641897 L 159.87649173533282 131.66193028488905 L 159.99029785878832 135.23170495252288 L 159.97613656935658 138.60270512541177 L 159.83403052207976 141.76279884317614 L 159.5642070563191 144.70061318092405 L 159.16709783206068 147.40557517949804 L 158.92100165990485 148.66766066794156 L 158.64333813935104 149.867949896712 L 158.33421833210537 151.00536268652036 L 157.99376588196918 152.0788754426292 L 157.62211696538316 153.08752207601782 L 157.2194202369589 154.0303948727975 L 156.78583677001825 154.90664531109365 L 156.32153999216717 155.7154848246567 L 155.82671561592616 156.4561855125194 L 155.30156156444815 157.12808079405858 L 154.74628789235183 157.7305660088724 L 154.16111670170247 158.263098960934 L 153.54628205317414 158.72520040653143 L 152.9020298724285 159.11645448555458 L 152.228617851748 159.43650909574131 L 151.52631534696224 159.6850762095453 L 150.79540326970917 159.86193213334198 L 150.0361739750743 159.96691770873736 L 149.24893114465266 159.9999384557999 L 148.4339896650799 159.96096465808608 L 147.59167550208218 159.8500313893832 L 146.72232557009391 159.66723848214525 L 145.8262875974967 159.41275043765066 L 144.9039199875327 159.086796277962 L 143.95559167494775 158.68966933982185 L 141.9825804488507 157.683390407015 L 139.9104103162809 156.3975351567375 L 137.7423963074108 154.8367312793331 L 135.4820067821699 153.00659598329474 L 133.1328578816076 150.9137157793792 L 130.69870774284004 148.56562277628097 L 128.1834504868313 145.9707675731753 L 125.59110998863164 143.13848884668596 L 122.92583344003481 140.0789797417341 L 120.19188471495679 136.80325118722453 L 115.97179716276813 131.51023790284336 L 111.6222499856728 125.80027324764495 L 107.15889685656117 119.71957672453333 L 102.59780102685482 113.31736873811194 L 96.39271066556566 104.37085564411156 L 88.49361085953585 92.71038276372245 L 63.03934636399247 54.80095483288593 L 56.84574634483558 45.89270369757115 L 52.2956090073595 39.526684369483824 L 47.84517756030466 33.488277669889555 L 43.510468750991485 27.826361686978956 L 39.30708285020999 22.586766992045483 L 36.58527430364379 19.349422273020394 L 33.93292005687756 16.330354139048296 L 31.354263310900514 13.540427975208985 L 28.853429366422546 10.989684502933898 L 26.43441902427182 8.687303644250534 L 24.101102184967758 6.6415714839776 L 21.85721165770552 4.85985044876594 L 19.706337188657443 3.3485528103147573 L 17.65191971814562 2.1131176081169514 L 15.697245875870337 1.1579910747904307 L 14.758296393654973 0.7866575238721794 L 13.845442723004197 0.4866106344422434 L 12.959049993215558 0.25812042844856364 L 12.099472749561897 0.10139253165384332 L 11.267054811480264 0.016567988586459137 L 10.462129135046993 0.0037231356096327772 L 9.685017679800453 0.06286953222407021 L 8.936031279961398 0.19395395066507604 L 8.215469520103284 0.3968584238039625 L 7.523620615323068 0.6714003513105524 L 6.86076129595763 1.0173326639811506 L 6.227156696897083 1.434344046084064 L 5.623060251533076 1.9220592155226939 L 5.048713590389056 2.4800392615645848 L 4.504346444471622 3.1077820398306812 L 3.990176553381289 3.8047226241918395 L 3.506409578218623 4.570233815164386 L 3.0532390193238115 5.40362670434682 L 2.630846138878141 6.304151294391204 L 2.2393998884019624 7.270997173949951 L 1.8790568411762365 8.30329424699174 L 1.5499611296152978 9.40011351582902 L 1.2522443876160452 10.560467917152423 L 0.9860256979055748 11.783313210322731 L 0.7514115444103879 13.067548917115516 L 0.5484957696636599 14.412019312078002 L 0.23807129943999428 17.276771317789972 L 0.05524890016658901 20.367259213799677 L 0.00032104868223825633 23.672360581007368 L 0.07337561783202773 27.18018062357266 L 0.2742957358894387 30.878094977332964 L 0.6027599735262896 34.75279514388346 L 1.0582428580309369 38.79033638679816 L 1.6400157139526925 42.97618791762411 L 2.3471478288269907 47.295285191027794 L 3.1785079421168803 51.73208412088978 L 4.132766054988423 56.2706170222307 L 5.208395558025359 60.89455007763338 L 6.403675673478006 65.58724212134629 L 7.716694208141362 70.33180452951191 L 9.145350612455402 75.1111620009728 L 10.687359340937107 79.90811400991899 L 12.340253508565254 84.70539670920395 L 14.101388837270235 89.48574506155501 L 15.967947886214944 94.23195497505957 L 17.936944559099288 98.92694521932123 L 20.005228881276537 103.55381889944113 L 22.169492039042005 108.09592426659532 L 24.42627167302775 112.53691464634673 L 26.77195741724023 116.86080726902259 L 29.202796674874975 121.05204079042522 L 31.714900621671134 125.09553129586612 L 34.304250427200785 128.97672658597173 L 36.96670368414048 132.68165854888576 L 39.69800103523837 136.19699343038775 L 42.49377298737889 139.51007982101075 L 45.34954690183764 142.60899418745214 L 48.260754149551026 145.48258378441898 L 51.22273741994712 148.12050679246607 L 54.23075817164937 150.5132695373801 L 55.75053146034394 151.61498942557455 L 57.2800042131319 152.6522606571526 L 58.81856466130592 153.62414975801994 L 60.365597401199764 154.52978209358582 L 61.920483640344585 155.3683426558769 L 63.48260144497627 156.13907679698826 L 65.05132598880091 156.84129090821585 L 66.62602980291732 157.4743530442576 L 68.20608302679477 158.03769349192135 L 69.79085366021194 158.53080528282877 L 71.3797078160446 158.95324464965194 L 72.97200997381516 159.30463142547455 L 74.5671232338909 159.58464938591626 L 76.1644095722357 159.79304653371332 L 77.76323009561108 159.92963532549913 L 79.36294529712501 159.9942928405805 L 80.96291531202642 159.9869608915581 L 82.56250017364115 159.90764607669126 L 84.16106006935321 159.75641977395964 L 85.75795559651732 159.5334180768283 L 87.35254801821452 159.2388416717725 L 88.94419951873711 158.87295565767346 L 90.53227345870661 158.43608930724733 L 92.11613462972134 157.92863577072177 L 93.69514950842994 157.35105172202776 L 95.26868650993528 156.70385694782323 L 96.83611624041615 155.9876338797207 L 98.39681174887939 155.2030270701378 L 99.95014877793065 154.35074261224395 L 101.49550601346917 153.43154750452362 L 103.03226533320522 152.4462689605299 L 104.55981205390077 151.39579366444815 L 106.07753517723455 150.28106697314 L 107.58482763419354 149.10309206538548 L 110.56571337472072 146.5616939572718 L 113.4977004941861 143.7807456289156 L 116.37609843865579 140.77025549123516 L 119.19630238544434 137.54105805778647 L 121.95380060984758 134.10477495221642 L 124.64418170294209 130.47377308296342 L 127.26314162889632 126.66112013574549 L 129.80649061050988 122.68053754400171 L 132.27015983196463 118.54635110654951 L 134.65020794806117 114.2734394301769 L 136.94282738952984 109.87718038272918 L 139.14435045433058 105.37339574938662 L 141.25125517519294 100.7782942913255 L 143.26017095401252 96.10841341168076 L 145.16788395408923 91.38055963875237 L 146.97134224157975 86.6117481406549 L 148.66766066794142 81.81914148908167 L 150.2541254855542 77.01998789258482 L 151.72819868913746 72.23155912164805 L 153.0875220760177 67.47108834896392 L 154.32992101874947 62.75570812862257 L 155.45340794405539 58.102388737417684 L 156.45618551251948 53.5278771001754 L 157.33664949394648 49.04863651891033 L 158.09339133378847 44.68078742271618 L 158.72520040653148 40.44004935162698 L 159.2310659524377 36.34168438325237 L 159.61017869454594 32.40044220577494 L 159.86193213334198 28.63050703500278 L 159.98592351702825 25.045446566509277 L 159.9819544858409 21.65816314657988 L 159.85003138938316 18.480847337700197 L 159.5903652764673 15.524934045691921 L 159.20337155748143 12.80106136640336 L 158.96231238472018 11.529237300831198 L 158.68966933982182 10.319032300050608 L 158.3855514763691 9.171535466875739 L 158.0500804374526 8.08777947100262 L 157.683390407015 7.068739619676336 L 157.2856280561793 6.115332979980067 L 156.85695248458245 5.228417553536403 L 156.3975351567375 4.408791504364032 L 155.9075598334499 3.6571924405841543 L 155.3872224983164 2.9742967506230116 L 154.8367312793331 2.3607189945072378 L 154.25630636564784 1.8170113508021473 L 153.64617991948722 1.3436631196879887 L 153.00659598329474 0.941100282622628 L 152.3378103821173 0.6096851189872297 L 151.64009062127815 0.3497158800592217 L 150.91371577937906 0.16142652060634077 L 150.15897639667185 0.044986488342843245 L 149.37617435884653 0.0005005714383514714 L 148.56562277628097 0.02800880421533236 L 147.727645858801 0.1274864311210564 L 146.86257878600077 0.2988439290058409 L 145.97076757317532 0.5419270876878954 L 145.0525689329191 0.8565171487319674 L 144.10835013244554 1.2423310023174423 L 142.14337300722264 2.226177477262425 L 140.0789797417341 3.4899257276397577 L 137.91847292482424 5.02902762443243 L 135.66530890651637 6.837944062842823 L 133.32309226859087 8.910164897087412 L 130.89557005802192 11.238232369893495 L 128.38662579250274 13.813767952369545 L 125.80027324764495 16.62750249766414 L 123.14065003579503 19.669309599882048 L 120.4120109867357 22.928242038213106 L 116.19922515701548 28.19789097010183 L 111.8561612072023 33.88685383356193 L 107.39844947756902 39.94908112540679 L 102.84213291659103 46.33550194085303 L 96.64204454735841 55.26535517997392 L 88.74695164261658 66.91238208955444 L 61.727209174704 107.10587753429574 L 55.56147862590411 115.92144738194905 L 51.037646176955676 122.20074535802267 L 46.618046926181094 128.13844796698325 L 42.31858665828923 133.68649227332216 L 38.1547387873843 138.799969443902 L 35.46160232799723 141.94693285935324 L 32.83971780386704 144.87095421117067 L 30.293279670927255 147.5615101800517 L 27.826361686979183 150.00891766995977 L 25.44291039454916 152.20436865681495 L 23.14673880726302 154.13996188786638 L 20.941520309836363 155.80873131767243 L 18.830782781443567 157.2046711783405 L 16.817902951863402 158.3227575938064 L 15.849172237761437 158.7763088074273 L 14.906100999431573 159.15896666036286 L 13.989066452794859 159.47038678637398 L 13.098435399442977 159.71028892836756 L 12.234564079922336 159.87845719060869 L 11.397798031242644 159.97474023301243 L 10.588471948666609 159.99905140733944 L 9.806909551836284 159.9513688351738 L 9.053423455289959 159.83173542761205 L 8.328315043419792 159.6402588466459 L 7.631874349922512 159.37711140827403 L 6.964379941789801 159.04252992742894" stroke-linecap="round" stroke-linejoin="round" stroke-miterlimit="10" stroke-width="5" stroke-dasharray=""/></g></g></g><g id="labels-77527709"/><g id="labels-77527709"/></g></svg>